<?xml version="1.0" standalone="no"?>
<!DOCTYPE svg PUBLIC "-//W3C//DTD SVG 20010904//EN"
 "http://www.w3.org/TR/2001/REC-SVG-20010904/DTD/svg10.dtd">
<svg version="1.0" xmlns="http://www.w3.org/2000/svg"
 width="225.000000pt" height="225.000000pt" viewBox="0 0 225.000000 225.000000"
 preserveAspectRatio="xMidYMid meet">
<metadata>
Created by potrace 1.11, written by Peter Selinger 2001-2013
</metadata>
<g transform="translate(0.000000,225.000000) scale(0.100000,-0.100000)"
fill="#000000" stroke="none">
<path d="M1008 1853 c7 -3 16 -2 19 1 4 3 -2 6 -13 5 -11 0 -14 -3 -6 -6z"/>
<path d="M1278 1843 c7 -3 16 -2 19 1 4 3 -2 6 -13 5 -11 0 -14 -3 -6 -6z"/>
<path d="M840 1810 c-8 -5 -10 -10 -5 -10 6 0 17 5 25 10 8 5 11 10 5 10 -5 0
-17 -5 -25 -10z"/>
<path d="M1120 1501 c0 -175 2 -320 6 -323 5 -5 88 22 97 32 3 3 1 30 -3 60
-5 30 -22 151 -39 268 -38 259 -38 262 -9 262 29 0 20 6 -19 13 l-33 7 0 -319z"/>
<path d="M1086 1802 c-2 -4 -1 -14 5 -22 7 -12 9 -10 9 8 0 23 -5 28 -14 14z"/>
<path d="M795 1790 c-3 -6 1 -7 9 -4 18 7 21 14 7 14 -6 0 -13 -4 -16 -10z"/>
<path d="M743 1762 c-60 -32 -152 -112 -198 -169 -53 -68 -114 -179 -119 -220
-2 -15 -9 -50 -16 -78 -21 -84 -17 -238 9 -334 27 -103 48 -146 117 -239 52
-69 156 -162 181 -162 7 0 21 -9 32 -21 11 -12 21 -16 25 -10 4 5 -4 15 -16
22 -13 6 -33 20 -45 31 -12 12 -27 17 -34 13 -7 -5 -10 -4 -6 1 3 6 -37 55
-90 109 -108 113 -105 110 -138 209 -48 141 -51 267 -9 406 22 76 90 217 127
265 44 58 125 133 175 162 23 14 42 27 42 29 0 6 -1 5 -37 -14z"/>
<path d="M1465 1743 c17 -9 48 -30 70 -47 22 -17 34 -23 27 -14 -17 22 -102
78 -116 78 -6 -1 3 -8 19 -17z"/>
<path d="M1650 1676 c0 -2 8 -10 18 -17 15 -13 16 -12 3 4 -13 16 -21 21 -21
13z"/>
<path d="M1580 1667 c0 -3 16 -21 36 -39 19 -19 37 -43 38 -53 2 -11 9 -19 15
-17 6 1 11 -1 12 -5 2 -25 9 -42 28 -73 11 -19 21 -30 21 -25 0 6 5 2 11 -8 5
-9 7 -22 3 -29 -5 -7 -3 -8 6 -3 9 6 10 2 5 -15 -5 -16 -4 -20 5 -15 7 4 11 1
9 -6 -4 -30 2 -50 12 -44 27 17 -52 189 -123 266 -44 47 -78 76 -78 66z"/>
<path d="M1710 1596 c100 -146 150 -344 130 -519 -14 -118 -64 -263 -116 -337
-20 -27 -16 -24 15 10 44 48 96 159 117 250 18 75 17 234 -2 316 -8 37 -28 97
-45 133 -32 71 -109 191 -122 191 -4 0 6 -20 23 -44z"/>
<path d="M1790 1281 c0 -6 4 -13 10 -16 6 -3 7 1 4 9 -7 18 -14 21 -14 7z"/>
<path d="M1803 1135 c0 -44 2 -61 4 -37 2 23 2 59 0 80 -2 20 -4 1 -4 -43z"/>
<path d="M942 1139 c-43 -33 -51 -43 -41 -55 15 -19 23 -18 15 2 -7 19 43 65
64 59 8 -3 21 -1 28 4 11 6 11 10 0 19 -10 8 -26 1 -66 -29z m58 21 c0 -5 -5
-10 -11 -10 -5 0 -7 5 -4 10 3 6 8 10 11 10 2 0 4 -4 4 -10z"/>
<path d="M361 1049 c1 -19 5 -45 9 -59 6 -16 7 -6 3 30 -7 63 -13 80 -12 29z"/>
<path d="M843 1054 l-28 -25 32 21 c18 13 36 19 44 15 8 -5 10 -4 5 3 -11 18
-22 15 -53 -14z"/>
<path d="M795 1019 c-4 -6 -4 -13 -1 -16 3 -4 6 -1 6 6 0 7 5 9 12 5 7 -4 8
-3 4 4 -9 15 -13 15 -21 1z"/>
<path d="M1792 1010 c0 -14 2 -19 5 -12 2 6 2 18 0 25 -3 6 -5 1 -5 -13z"/>
<path d="M381 955 c-2 -36 58 -177 80 -191 7 -4 2 11 -9 32 -12 21 -33 68 -46
104 -14 36 -25 61 -25 55z"/>
<path d="M699 943 c-13 -16 -12 -17 4 -4 9 7 17 15 17 17 0 8 -8 3 -21 -13z"/>
<path d="M1450 956 c0 -3 14 -12 30 -21 17 -9 30 -13 30 -11 0 3 -13 12 -30
21 -16 9 -30 13 -30 11z"/>
<path d="M659 913 c-13 -16 -12 -17 4 -4 9 7 17 15 17 17 0 8 -8 3 -21 -13z"/>
<path d="M1697 819 c7 -7 15 -10 18 -7 3 3 -2 9 -12 12 -14 6 -15 5 -6 -5z"/>
<path d="M1625 628 l-50 -53 53 50 c48 46 57 55 49 55 -1 0 -25 -24 -52 -52z"/>
<path d="M1529 549 l-24 -20 28 17 c15 9 27 18 27 20 0 8 -8 4 -31 -17z"/>
<path d="M783 517 c-3 -6 -1 -7 5 -3 7 4 12 2 12 -4 0 -6 5 -8 10 -5 6 3 10 1
10 -6 0 -7 3 -10 6 -6 4 3 24 -1 46 -10 21 -8 40 -14 42 -12 3 2 -25 16 -60
30 -42 18 -66 23 -71 16z"/>
<path d="M1400 510 c-9 -6 -10 -10 -3 -10 6 0 15 5 18 10 8 12 4 12 -15 0z"/>
<path d="M1445 500 c-3 -6 1 -7 9 -4 18 7 21 14 7 14 -6 0 -13 -4 -16 -10z"/>
<path d="M1238 423 c7 -3 16 -2 19 1 4 3 -2 6 -13 5 -11 0 -14 -3 -6 -6z"/>
</g>
</svg>
